<svg width="2091" height="605" viewBox="0 0 2091 605" fill="none" xmlns="http://www.w3.org/2000/svg">
<path d="M835.309 477V162H875.309V442H1025.31V477H835.309Z" fill="black"/>
<path d="M1105.41 367V162H1145.41V367C1145.41 415 1174.91 444.5 1220.41 444.5C1265.91 444.5 1295.41 415 1295.41 367V162H1335.41V367C1335.41 432 1287.91 479.5 1220.41 479.5C1152.91 479.5 1105.41 432 1105.41 367Z" fill="black"/>
<path d="M1410.45 477L1530.45 162H1565.45L1685.45 477H1642.95L1612.95 399.5H1482.95L1452.95 477H1410.45ZM1495.45 364.5H1600.45L1547.95 227L1495.45 364.5Z" fill="black"/>
<path d="M1775.35 477V162H1892.85C1945.35 162 1987.85 204.5 1987.85 254.5C1987.85 291 1970.35 313 1952.85 326.5C1942.35 334.5 1930.85 340.5 1918.35 344.5L1995.35 477H1950.35L1875.35 347H1815.35V477H1775.35ZM1815.35 312H1892.85C1922.35 312 1947.85 286.5 1947.85 254.5C1947.85 222.5 1922.35 197 1892.85 197H1815.35V312Z" fill="black"/>
<rect width="315.632" height="30.8185" transform="matrix(0.707107 -0.707107 0.746889 0.664949 170.829 521.226)" fill="#252525"/>
<rect width="315.632" height="30.8185" transform="matrix(0.707107 0.707107 -0.746889 0.664949 193.848 65)" fill="#252525"/>
<rect width="318.337" height="30.5336" transform="matrix(0.866025 0.5 -0.536808 0.843704 139.37 129.881)" fill="#212121"/>
<rect width="320.09" height="30.3462" transform="matrix(0.965926 0.258819 -0.280885 0.959741 106.662 205.26)" fill="#121212"/>
<rect width="318.337" height="30.5336" transform="matrix(0.866025 -0.5 0.536808 0.843704 123.794 449.679)" fill="#212121"/>
<rect width="320.09" height="30.3462" transform="matrix(0.965926 -0.258819 0.280885 0.959741 98.8433 370.969)" fill="#121212"/>
<rect x="96" y="288.272" width="320.697" height="30.2808" fill="black"/>
<rect width="315.632" height="30.8185" transform="matrix(-0.707107 0.707107 -0.746889 -0.664949 621.171 85.4927)" fill="#252525"/>
<rect width="315.632" height="30.8185" transform="matrix(-0.707107 -0.707107 0.746889 -0.664949 598.152 541.718)" fill="#252525"/>
<rect width="318.337" height="30.5336" transform="matrix(-0.866025 -0.5 0.536808 -0.843704 652.63 476.837)" fill="#212121"/>
<rect width="320.09" height="30.3462" transform="matrix(-0.965926 -0.258819 0.280885 -0.959741 685.338 401.458)" fill="#121212"/>
<rect width="318.337" height="30.5336" transform="matrix(-0.866025 0.5 -0.536808 -0.843704 668.206 157.039)" fill="#212121"/>
<rect width="320.09" height="30.3462" transform="matrix(-0.965926 0.258819 -0.280885 -0.959741 693.157 235.749)" fill="#121212"/>
<rect x="696" y="318.446" width="320.697" height="30.2808" transform="rotate(-180 696 318.446)" fill="black"/>
</svg>
