<svg width="922" height="772" viewBox="0 0 922 772" fill="none" xmlns="http://www.w3.org/2000/svg">
<rect width="473.448" height="46.2278" transform="matrix(0.707107 -0.707107 0.746889 0.664949 123.244 712.338)" fill="#36B853"/>
<rect width="473.448" height="46.2278" transform="matrix(0.707107 0.707107 -0.746889 0.664949 157.771 28.0001)" fill="#2C1F7A"/>
<rect width="477.506" height="45.8004" transform="matrix(0.866025 0.5 -0.536808 0.843704 76.0554 125.322)" fill="#4B3E9D"/>
<rect width="480.136" height="45.5193" transform="matrix(0.965926 0.258819 -0.280885 0.959741 26.9926 238.39)" fill="#6461EE"/>
<rect width="477.506" height="45.8004" transform="matrix(0.866025 -0.5 0.536808 0.843704 52.6907 605.019)" fill="#61EE99"/>
<rect width="480.136" height="45.5193" transform="matrix(0.965926 -0.258819 0.280885 0.959741 15.265 486.954)" fill="#61DDEE"/>
<rect x="11" y="362.908" width="481.046" height="45.4212" fill="#63A1FF"/>
<rect width="473.448" height="46.2278" transform="matrix(-0.707107 0.707107 -0.746889 -0.664949 798.756 58.7393)" fill="#36B853"/>
<rect width="473.448" height="46.2278" transform="matrix(-0.707107 -0.707107 0.746889 -0.664949 764.229 743.078)" fill="#2C1F7A"/>
<rect width="477.506" height="45.8004" transform="matrix(-0.866025 -0.5 0.536808 -0.843704 845.945 645.756)" fill="#4B3E9D"/>
<rect width="480.136" height="45.5193" transform="matrix(-0.965926 -0.258819 0.280885 -0.959741 895.008 532.687)" fill="#6461EE"/>
<rect width="477.506" height="45.8004" transform="matrix(-0.866025 0.5 -0.536808 -0.843704 869.309 166.058)" fill="#61EE99"/>
<rect width="480.136" height="45.5193" transform="matrix(-0.965926 0.258819 -0.280885 -0.959741 906.735 284.124)" fill="#61DDEE"/>
<rect x="911" y="408.169" width="481.046" height="45.4212" transform="rotate(-180 911 408.169)" fill="#63A1FF"/>
</svg>
